<?xml version="1.0" encoding="utf-8"?>
<!-- Generator: Adobe Illustrator 22.1.0, SVG Export Plug-In . SVG Version: 6.00 Build 0)  -->
<svg version="1.1" id="Layer_1" xmlns="http://www.w3.org/2000/svg" xmlns:xlink="http://www.w3.org/1999/xlink" x="0px" y="0px"
	 viewBox="0 0 1280 387.5" style="enable-background:new 0 0 1280 387.5;" xml:space="preserve">
<g>
	<g>
		<path d="M518.2,139.7v64.9h-5.3V72.9h41.9c21.3,0,37.6,10.4,37.6,33.1c0,16.1-8.5,27.9-25.7,31.1c15.4,3.4,23.6,12.9,23.6,34.4
			v5.5c0,13.2,0.4,21.1,2.3,27.5h-5.4c-2-6.5-2.3-16.3-2.3-26.9V172c0-22.9-9.1-32.4-33.6-32.4H518.2z M518.2,134.9h32.9
			c19.4,0,35.8-6,35.8-28.9c0-18-11.8-28.4-32.6-28.4h-36.1V134.9z"/>
		<path d="M648.5,77.7h-43.3v-4.8h92.2v4.8h-43.6v126.8h-5.3V77.7z"/>
		<path d="M826.6,141.1c0-26.5,0-51.3,0.7-64h-0.4c-5.5,16.1-34.8,87.6-51.1,127.4h-6c-15.7-40.4-43.3-109.3-49.5-127.3h-0.2
			c0.6,11.1,0.7,46.4,0.7,68.9v58.4h-5.1V72.9h8c19.7,49.8,44.7,112.5,49.4,125.6h0.2c3.6-10.3,32-79.5,50.6-125.6h8v131.6h-5.3
			V141.1z"/>
		<path d="M938.4,137.3h-66.1v62.5h72.1l-0.9,4.8h-76.4V72.9h74.8v4.8h-69.6v54.8h66.1V137.3z"/>
		<path d="M969.1,204.5V72.9h7.8c54.6,86.5,74.9,117.3,80.1,125.7l0.2,0.1c-0.7-8.2-0.7-40-0.7-61.3V72.9h5.3v131.6h-7.2
			c-55.5-88.4-75-118.2-80.6-126.9l-0.2-0.1c0.9,17.5,0.6,37.3,0.6,61.4v65.7H969.1z"/>
		<path d="M1123.4,77.7h-43.3v-4.8h92.2v4.8h-43.6v126.8h-5.3V77.7z"/>
	</g>
</g>
<rect x="348" y="251.2" width="113.8" height="4.1"/>
<g>
	<g>
		<path d="M520.6,341.8v-37.5c0-0.7-0.3-1.5-0.7-2l-32.1-54.1h5.3c9.7,16.3,26.6,44.8,30,50.9c5.5-9.5,20.4-34,30.7-50.9h5l-33,54.3
			c-0.4,0.7-0.6,1.3-0.6,1.9v37.4H520.6z"/>
		<path d="M571.5,248.2H602c17,0,28.2,9.3,28.2,25c0,16.5-11,25.7-29.2,25.7h-25v42.9h-4.5V248.2z M576.1,294.8h25.2
			c14.6,0,24.2-6.2,24.2-21.5c0-12.6-8.6-21-23.7-21h-25.7V294.8z"/>
		<path d="M701.1,294.4h-47.8v43.3h52.1l-0.8,4.1h-55.9v-93.6h54.7v4.1h-50.2v37.9h47.8V294.4z"/>
	</g>
</g>
<rect x="361.6" y="136.9" width="86.6" height="4.6"/>
<rect x="275.6" y="137.7" transform="matrix(0.5 -0.866 0.866 0.5 59.9408 384.076)" width="174.1" height="4.8"/>
<rect x="361.2" y="137.7" transform="matrix(-0.5 -0.866 0.866 -0.5 550.9974 598.374)" width="174.1" height="4.8"/>
<rect x="260" y="250.8" transform="matrix(6.123234e-17 -1 1 6.123234e-17 94.7858 601.2939)" width="176.1" height="4.8"/>
<rect x="373.8" y="251.3" transform="matrix(6.123234e-17 -1 1 6.123234e-17 208.0893 715.5878)" width="176.1" height="4.8"/>
<g>
	<g>
		<path d="M159.6,154.6l-18.4,50h-5.5c1.4-4.3,47.3-127.1,48.9-131.9h5.9l50,131.9h-5.8l-18.8-50H159.6z M214.1,149.7
			c-15.6-41.3-24.2-64.4-26.6-71.8h-0.2c-1.9,7.3-13.4,38-25.8,71.8H214.1z"/>
		<path d="M262.6,72.6h42.5c23.9,0,39.5,13,39.5,35c0,23.1-15.1,35.9-40.9,35.9h-35.8v61h-5.3V72.6z M267.9,138.7h36
			c20.6,0,35-8.6,35-30.9c0-17.8-12.1-30.4-34.3-30.4h-36.8V138.7z"/>
	</g>
</g>
<rect x="404.1" y="63.3" width="2.6" height="2.6"/>
</svg>
